<svg width="218" height="309" viewBox="0 0 218 309" fill="none" xmlns="http://www.w3.org/2000/svg">
<path d="M192.213 227.795L217 280.064V307.099H141.03L124.613 272.253H118.496L112.702 307.099H90.8122L93.0656 294.482V265.344L87.5931 260.238L83.4083 255.131L80.1893 260.238L79.2235 275.558L80.1893 291.178V308H56.69V303.194L55.4024 299.289L54.4367 294.482L53.149 290.277L52.1833 287.874L49.93 276.159V269.55L48.3204 262.641L48.9642 255.131L49.93 249.424L47.9985 245.218L40.2727 219.385L36.7317 206.768L33.5127 199.258L32.225 193.551V188.745L31.5812 183.338L32.5469 180.934L32.225 178.231V173.425L36.4098 160.207L37.3756 157.804V155.101V149.994L40.2727 141.884L45.1013 129.568L47.9985 118.453L46.0671 112.746L45.1013 105.536L43.4918 98.3268L41.8823 90.2162V79.7025L38.3413 75.4971H34.8003L33.1908 73.9951H27.7183V75.1967L25.7869 76.999L19.3487 77.2994L17.4173 75.1967L10.6572 70.09L7.11624 68.8885L6.79434 68.5881L5.82861 67.3865L5.50671 66.1849V63.181V59.8767V58.6751L3.89717 56.8728L2.60954 55.9716V52.3669H1.96572L1 50.865V45.7583L1.96572 43.6556L4.54098 41.2524L7.76006 40.6517L12.2668 37.9481L16.7735 33.7427V29.8376V19.0235L26.7526 12.7153L35.766 6.70744L41.2385 4.00391H50.5738L56.69 1.60078L63.772 2.50196L67.6349 1L81.155 4.00391H91.456L124.613 28.0352L128.154 35.8454L124.613 42.1536L116.885 51.1048C115.376 53.0389 113.831 55.0647 112.441 56.9374L108.839 61.9795L100.469 67.6869L107.873 91.7182L123.969 108.24V111.844L128.154 116.651L137.167 129.568L141.03 143.986L174.508 181.235L192.213 227.795Z" fill="#F1AE00"/>
<path d="M108.839 61.9794L100.469 67.6869L107.873 91.7182L123.969 108.24V111.844L128.154 116.651L137.167 129.568L141.03 143.986L174.508 181.235L192.213 227.795L217 280.064V307.099H141.03L124.613 272.253H118.496L112.702 307.099H90.8122L93.0656 294.482V265.344L87.5931 260.238L83.4083 255.131L80.1893 260.238L79.2235 275.558L80.1893 291.178V308H56.69V303.194L55.4024 299.289L54.4367 294.482L53.149 290.277L52.1833 287.874L49.93 276.159V269.55L48.3204 262.641L48.9642 255.131L49.93 249.424L47.9985 245.218L40.2727 219.385L36.7317 206.768L33.5127 199.258L32.225 193.551V188.745L31.5812 183.338L32.5469 180.934L32.225 178.231V173.425L36.4098 160.207L37.3756 157.804V155.101V149.994L40.2727 141.884L45.1013 129.568L47.9985 118.453L46.0671 112.746L45.1013 105.536L43.4918 98.3268L41.8823 90.2162V79.7025L38.3413 75.4971H34.8003L33.1908 73.9951H27.7183V75.1967L25.7869 76.999L19.3487 77.2994L17.4173 75.1967L10.6572 70.09L7.11624 68.8885M108.839 61.9794L115.277 52.9677L124.613 42.1536M108.839 61.9794C112.809 56.0567 124.097 41.655 124.613 42.1536M124.613 42.1536L128.154 35.8454L124.613 28.0352L91.456 4.00391H81.155L67.6349 1L63.772 2.50196L56.69 1.60078L50.5738 4.00391H41.2385L35.766 6.70744L26.7526 12.7153L16.7735 19.0235V29.8376V33.7427L12.2668 37.9481L7.76006 40.6517L4.54098 41.2524L1.96572 43.6556L1 45.7583V50.865L1.96572 52.3669H2.60954V55.9716L3.89717 56.8728L5.50671 58.6751V59.8767V63.181V66.1849L5.82861 67.3865L6.79434 68.5881L7.11624 68.8885M7.76006 68.8885H7.11624" stroke="black"/>
<path d="M97.2503 115.149C99.4572 109.135 97.6842 100.004 97.273 96.286L97.2503 96.2241L97.2673 96.234L105.701 101.172C106.373 97.8551 108.174 98.4188 112.194 104.974L105.701 101.172C105.066 104.312 105.441 110.928 105.902 119.232C116.82 124.344 112.293 121.193 115.277 109.141L115.11 111.544C124.816 114.191 127.065 117.548 119.604 126.167C120.28 128.319 120.929 130.355 121.554 132.271H130.407C128.067 135.158 126.003 137.776 124.231 140.131C127.174 148.302 129.544 153.006 131.688 153.76C132.414 153.522 133.167 153.268 133.948 152.998C133.213 153.787 132.465 154.034 131.688 153.76C113.54 159.712 112.565 155.631 124.231 140.131C123.388 137.791 122.498 135.168 121.554 132.271H113.668C116.08 129.981 118.052 127.961 119.604 126.167C118.223 121.769 116.732 116.885 115.11 111.544L115.277 109.141C112.293 121.193 116.82 124.344 105.902 119.232C105.915 119.471 105.928 119.713 105.942 119.955L105.63 119.104C103.474 118.092 100.736 116.772 97.2503 115.149Z" fill="#D13FC3"/>
<path d="M97.2503 94.7221C96.7352 95.9237 99.9328 107.839 97.2503 115.149C118.946 125.251 111.692 123.618 115.277 109.141L115.11 111.544M115.11 111.544C126.835 114.742 127.678 118.975 113.668 132.271H130.407C112.049 154.919 110.671 161.045 133.948 152.998C129.442 157.84 124.434 142.247 115.11 111.544ZM113.668 105.837L112.194 104.974M112.194 104.974L97.2503 96.2241L105.942 119.955C104.972 102.439 104.258 92.0354 112.194 104.974Z" stroke="black" stroke-opacity="0.84"/>
<path d="M37.3756 22.9286L32.547 28.636V17.8219L36.4098 14.2172L41.8823 6.70745H43.4918L45.1014 8.81019L46.0671 8.2094L48.6423 6.70745C48.9642 6.20679 49.8656 5.20549 50.8957 5.20549C51.9258 5.20549 53.6856 6.20679 54.4367 6.70745L56.3681 8.2094L57.9777 10.3121C59.158 10.6125 61.7118 11.3335 62.4844 11.8141C63.2569 12.2947 66.24 14.6178 67.6349 15.7192C67.0984 16.32 65.8966 17.4014 65.3815 16.9208C64.7377 16.32 60.5529 13.3161 59.9091 13.0157C59.3941 12.7754 57.3338 11.5137 56.3681 10.9129C56.69 10.212 56.6256 8.81019 53.7929 8.81019C49.6724 8.81019 46.2817 10.8128 45.1014 11.8141C44.3502 11.8141 42.6549 12.0544 41.8823 13.0157C40.9166 14.2172 40.2727 14.5176 39.307 15.7192C38.3413 16.9208 38.0194 18.7231 38.0194 19.3239C38.0194 19.8045 37.5902 21.9273 37.3756 22.9286Z" fill="#D9D9D9"/>
<path d="M21.924 34.3435L24.4993 37.3474L19.6707 41.5528H23.8555L27.3964 43.3552C27.7183 43.0548 28.3622 42.2738 28.3622 41.5528C28.3622 40.6517 29.3279 40.0509 29.6498 38.5489C29.9073 37.3474 28.8987 36.2459 28.3622 35.8454C27.3964 35.3448 25.2718 34.3435 24.4993 34.3435H21.924Z" fill="#D9D9D9"/>
<path d="M64.7377 51.7662C64.6304 53.969 64.4802 58.4348 64.7377 58.6752L69.8882 49.6634H67.6349L64.7377 51.7662Z" fill="#D9D9D9"/>
<path d="M63.4501 3.10275L69.8882 8.81019C70.6394 8.30953 72.206 7.18807 72.4635 6.70745C72.721 6.22682 71.4978 5.50588 70.854 5.20549C70.1028 4.50458 68.5362 3.10275 68.2787 3.10275C68.0212 3.10275 65.8107 2.30171 64.7377 1.90118L63.4501 3.10275Z" fill="#D9D9D9"/>
<path d="M37.3756 22.9286L32.547 28.636V17.8219L36.4098 14.2172M37.3756 22.9286L36.4098 14.2172M37.3756 22.9286C37.5902 21.9273 38.0194 19.8045 38.0194 19.3239C38.0194 18.7231 38.3413 16.9208 39.307 15.7192C40.2727 14.5176 40.9166 14.2172 41.8823 13.0157C42.6549 12.0544 44.3502 11.8141 45.1014 11.8141C46.2817 10.8128 49.6724 8.81019 53.7929 8.81019C56.6256 8.81019 56.69 10.212 56.3681 10.9129C57.3338 11.5137 59.394 12.7754 59.9091 13.0157C60.5529 13.3161 64.7377 16.32 65.3815 16.9208C65.8966 17.4014 67.0984 16.32 67.6349 15.7192C66.24 14.6178 63.2569 12.2947 62.4844 11.8141C61.7118 11.3335 59.158 10.6125 57.9777 10.3121L56.3681 8.2094L54.4367 6.70745C53.6856 6.20679 51.9258 5.20549 50.8957 5.20549C49.8656 5.20549 48.9642 6.20679 48.6423 6.70745L46.0671 8.2094L45.1014 8.81019L43.4918 6.70745H41.8823L36.4098 14.2172M24.4993 37.3474L21.924 34.3435C22.4605 34.3435 23.7267 34.3435 24.4993 34.3435C25.2718 34.3435 27.3964 35.3448 28.3622 35.8454C28.8987 36.2459 29.9073 37.3474 29.6498 38.5489C29.3279 40.0509 28.3622 40.6517 28.3622 41.5528C28.3622 42.2738 27.7183 43.0548 27.3964 43.3552L23.8555 41.5528H19.6707L24.4993 37.3474ZM64.7377 58.6752C64.4802 58.4348 64.6304 53.969 64.7377 51.7662L67.6349 49.6634H69.8882L64.7377 58.6752ZM69.8882 8.81019L63.4501 3.10275L64.7377 1.90118C65.8107 2.30171 68.0212 3.10275 68.2787 3.10275C68.5362 3.10275 70.1028 4.50458 70.854 5.20549C71.4978 5.50588 72.721 6.22682 72.4635 6.70745C72.206 7.18807 70.6394 8.30953 69.8882 8.81019Z" stroke="black" stroke-opacity="0.84"/>
<path d="M25.465 41.8533H20.6364L22.2459 51.1654L25.7869 46.9599L26.4307 52.0666L29.006 48.7623V46.0587V43.6556L25.465 41.8533Z" fill="#00FFC2"/>
<path d="M40.2727 16.32C40.896 22.3143 40.7859 24.9747 40.2727 29.2368C45.343 28.5598 47.6739 27.7858 51.2176 25.9325C54.2013 28.6951 55.9996 29.0839 59.2653 29.2368L63.772 25.9325H66.3472L68.6006 24.731L66.3472 21.727L61.5186 16.32L55.4024 12.7153H45.7452L40.2727 16.32Z" fill="#00FFC2"/>
<path d="M25.465 41.8533H20.6364L22.2459 51.1654L25.7869 46.9599L26.4307 52.0666L29.006 48.7623V46.0587V43.6556L25.465 41.8533Z" stroke="black"/>
<path d="M40.2727 16.32C40.896 22.3143 40.7859 24.9747 40.2727 29.2368C45.343 28.5598 47.6739 27.7858 51.2176 25.9325C54.2013 28.6951 55.9996 29.0839 59.2653 29.2368L63.772 25.9325H66.3472L68.6006 24.731L66.3472 21.727L61.5186 16.32L55.4024 12.7153H45.7452L40.2727 16.32Z" stroke="black"/>
<path d="M5.82858 53.5685L3.25331 54.4696H2.6095L2.93141 52.0665H1.96568L1.32187 50.8649V48.4618H2.93141L4.54095 49.363L5.50667 51.1653L5.82858 53.5685Z" fill="#E134BB"/>
<path d="M59.2652 25.6321L62.1624 24.4305V20.8258L59.2652 18.4227V16.6203L53.4709 15.1184L51.2175 16.9207C50.8956 17.5215 50.2518 19.7444 50.2518 20.225C50.2518 20.7056 51.2175 21.9272 50.8956 22.9285L52.5052 25.0313L56.69 26.5332L59.2652 25.6321Z" fill="#E134BB"/>
<path d="M23.2116 28.0352L21.2801 29.8375H19.0268L17.4172 26.5332L17.7392 23.5293C18.1684 23.0287 19.2199 22.0274 19.9925 22.0274C20.9582 22.0274 23.2116 20.8258 23.2116 21.4266C23.2116 22.0274 23.2116 24.4305 24.1773 25.6321C24.9499 26.5933 23.8554 27.6347 23.2116 28.0352Z" fill="#E134BB"/>
<path d="M53.149 48.4618L47.9985 52.0665L46.3889 47.2602L43.4918 36.4462V29.8375H49.608L55.0804 33.7426L62.1624 32.2407L66.991 28.0352V32.2407L62.1624 40.952L57.9776 38.5489L55.0804 33.7426L49.608 29.8375V33.7426V39.1497L53.149 48.4618Z" fill="#E134BB"/>
<path d="M10.6572 58.3747L13.8763 63.7818L8.72574 67.9873L10.6572 58.3747Z" fill="#E134BB"/>
<path d="M17.4172 52.6673H13.8763L12.9105 52.0665H11.6229L10.6572 50.2642L10.9791 48.1614L11.6229 46.9599C12.2667 46.8597 13.6187 46.6595 13.8763 46.6595C14.1338 46.6595 15.7004 47.06 16.4515 47.2602C16.5588 47.3604 16.8378 47.6808 17.0953 48.1614C17.4172 48.7622 17.7392 48.7622 18.0611 49.0626C18.383 49.363 18.0611 49.363 18.383 49.6634C18.7049 49.9638 19.0268 49.9638 19.0268 50.2642C19.0268 50.5645 19.6706 50.2642 19.0268 50.8649C18.383 51.4657 17.7392 51.7661 17.7392 52.0665C17.7392 52.3068 17.7392 52.5672 17.7392 52.6673M49.608 29.8375V33.7426V39.1497L53.149 48.4618L47.9985 52.0665L46.3889 47.2602L43.4918 36.4462V29.8375H49.608ZM49.608 29.8375L55.0804 33.7426M55.0804 33.7426L57.9776 38.5489L62.1624 40.952L66.991 32.2407V28.0352L62.1624 32.2407L55.0804 33.7426ZM36.4098 67.9872L42.526 72.1927L50.5737 73.3943L54.4366 70.6908V67.3865L51.5395 66.4853C51.1102 66.7857 50.1231 67.3865 49.608 67.3865C49.093 67.3865 45.3159 66.7857 43.4918 66.4853H36.4098H32.8688H29.6497L23.2116 63.7818H17.7392H13.8763M13.8763 63.7818L10.6572 58.3747L8.72574 67.9872M13.8763 63.7818L8.72574 67.9872M8.72574 67.9872V69.8535M3.25331 54.4696L5.82858 53.5685L5.50667 51.1653L4.54094 49.363L2.93141 48.4618H1.32187V50.8649L1.96568 52.0665H2.93141L2.6095 54.4696H3.25331ZM62.1624 24.4305L59.2652 25.6321L56.69 26.5332L52.5052 25.0313L50.8956 22.9285C51.2175 21.9272 50.2518 20.7056 50.2518 20.225C50.2518 19.7444 50.8956 17.5215 51.2175 16.9207L53.4709 15.1184L59.2652 16.6203V18.4227L62.1624 20.8258V24.4305ZM21.2801 29.8375L23.2116 28.0352C23.8554 27.6347 24.9499 26.5933 24.1773 25.6321C23.2116 24.4305 23.2116 22.0274 23.2116 21.4266C23.2116 20.8258 20.9582 22.0274 19.9925 22.0274C19.2199 22.0274 18.1684 23.0287 17.7392 23.5293L17.4172 26.5332L19.0268 29.8375H21.2801Z" stroke="black"/>
<path d="M18.0611 52.0666V52.6674H17.7392C17.8465 52.6674 17.9967 52.7274 17.7392 52.9678C17.4173 53.2681 17.7392 52.9678 17.0954 52.9678H16.9328H16.4516H15.1639H13.8763C13.2325 52.9678 13.5544 52.6674 13.2325 52.6674C12.975 52.6674 12.4814 52.4671 12.2668 52.367C12.0522 52.367 11.5586 52.3069 11.301 52.0666C10.9791 51.7662 11.301 51.7662 10.9791 51.7662C10.7216 51.7662 10.6572 51.1654 10.6572 50.865C10.5499 50.6647 10.3997 50.2041 10.6572 49.9638C10.9147 49.7235 10.9791 48.8624 10.9791 48.4619L11.301 47.5607L11.6229 46.9599L13.2325 46.6595L16.1296 46.9599L19.6706 50.5646L18.0611 52.0666Z" fill="#DB20A7"/>
<path d="M17.7392 52.6674H18.0611V52.0666L19.6706 50.5646L16.1296 46.9599L13.2325 46.6595L11.6229 46.9599L11.301 47.5607L10.9791 48.4619C10.9791 48.8624 10.9147 49.7235 10.6572 49.9638C10.3997 50.2041 10.5499 50.6647 10.6572 50.865C10.6572 51.1654 10.7216 51.7662 10.9791 51.7662C11.301 51.7662 10.9791 51.7662 11.301 52.0666C11.5586 52.3069 12.0522 52.367 12.2668 52.367C12.4814 52.4671 12.975 52.6674 13.2325 52.6674C13.5544 52.6674 13.2325 52.9678 13.8763 52.9678C14.5201 52.9678 14.842 52.9678 15.1639 52.9678C15.4858 52.9678 16.1297 52.9678 16.4516 52.9678C16.742 52.9678 16.5083 52.9678 16.9328 52.9678M17.7392 52.6674C17.8465 52.6674 17.9967 52.7274 17.7392 52.9678C17.4173 53.2681 17.7392 52.9678 17.0954 52.9678C17.0325 52.9678 16.9788 52.9678 16.9328 52.9678M17.7392 52.6674H17.4173L16.9328 52.9678" stroke="black"/>
<path d="M79.8673 275.558L81.1549 258.135L82.1207 255.732L84.0521 255.131L85.9836 258.736L94.3532 264.744V275.558V294.482L92.0998 307.399H113.99L119.14 272.253H124.934L140.708 307.399H217V279.463" stroke="black"/>
<path d="M101.435 176.128L102.723 165.915L106.908 157.804L109.805 168.318C116.35 178.431 125.224 196.615 108.356 188.444L106.908 198.658L102.723 186.942L101.435 176.128Z" fill="#3204B5"/>
<path d="M109.805 168.318L106.908 157.804L102.723 165.915L101.435 176.128L102.723 186.942L106.908 198.658L108.356 188.444M109.805 168.318V178.231L108.356 188.444M109.805 168.318C116.35 178.431 125.224 196.615 108.356 188.444M99.8256 67.9873L94.6751 73.3944H86.3055L79.2235 70.3904L75.0387 65.5842L74.3949 55.0705L73.7511 48.7623L72.4634 45.1576L76.0044 40.6517L78.5797 34.9443L83.4083 28.9364L84.374 20.5255L84.0521 15.4188L82.1207 12.7153L80.833 9.411L78.9016 6.70748L75.0387 4.30434L72.4634 6.70748L80.833 20.5255L79.2235 28.9364L63.1281 64.0822L54.4366 70.6908M36.4098 67.9873L33.8345 66.4854" stroke="black"/>
<path d="M72.7854 194.452L87.915 225.392L69.8882 206.167L72.7854 194.452Z" fill="#ECD400"/>
<path d="M60.5529 225.392L83.7302 255.732L80.833 261.439L58.6214 225.843L56.69 218.784V206.167L60.5529 225.392Z" fill="#ECD400"/>
<path d="M63.45 158.705L56.69 167.717L48.3204 158.705V147.891L52.1833 130.469L63.45 150.895V158.705Z" fill="#ECD400"/>
<path d="M156.803 268.949L163.885 283.969L156.803 290.878L124.291 272.253L140.064 278.562L144.571 272.253L156.803 268.949Z" fill="#ECD400"/>
<path d="M60.5529 232.902L58.6214 225.843M58.6214 225.843L56.69 218.784V206.167L60.5529 225.392L83.7302 255.732L80.833 261.439L58.6214 225.843ZM87.915 225.392L72.7854 194.452L69.8882 206.167L87.915 225.392ZM56.69 167.717L63.45 158.705V150.895L52.1833 130.469L48.3204 147.891V158.705L56.69 167.717ZM163.885 283.969L156.803 268.949L144.571 272.253L140.064 278.562L124.291 272.253L156.803 290.878L163.885 283.969Z" stroke="black"/>
<path d="M66.6692 96.8248V107.038L71.1759 103.433L66.6692 96.8248Z" fill="#5D00F4"/>
<path d="M71.1759 86.6115L66.6692 92.6194L74.3949 100.129V92.6194L71.1759 86.6115Z" fill="#5D00F4"/>
<path d="M74.3949 168.618L71.1759 157.204L77.614 145.488L79.5756 149.994L81.7988 155.101L80.8331 163.211L74.3949 168.618Z" fill="#5D00F4"/>
<path d="M80.8331 163.211L81.7988 155.101L79.5756 149.994M80.8331 163.211L74.3949 168.618L71.1759 157.204L77.614 145.488L79.5756 149.994M80.8331 163.211C79.9948 159.106 78.5697 150.715 79.5756 149.994M66.6692 107.038V96.8248L71.1759 103.433L66.6692 107.038ZM66.6692 92.6194L71.1759 86.6115L74.3949 92.6194V100.129L66.6692 92.6194Z" stroke="#FF0000"/>
<path d="M62.8063 277.36V301.992H67.9568V291.779L65.0596 284.87V274.356V267.447L62.8063 260.238L60.5529 269.85L62.8063 277.36Z" fill="#E00000" stroke="black"/>
<path d="M5.82864 58.6752H7.76009L13.2325 58.0744L16.7735 56.2721L18.383 53.5686L21.6021 51.4658V46.9599L22.5678 45.7584V43.956L21.924 42.1537L18.383 40.9521C18.383 40.9521 13.2325 40.1602 12.9106 40.0509C12.5887 39.9417 7.76009 40.9521 7.76009 40.9521" stroke="black"/>
<path d="M47.6767 70.09L44.1357 68.8884L42.848 67.6869L41.5604 66.4853H42.5261L44.7795 67.9872H46.7109C47.5694 68.2876 49.415 68.8884 49.93 68.8884H52.5053C52.7628 68.8884 53.0418 69.6895 53.1491 70.09L52.1834 70.3904L51.2176 70.09H49.2862H47.6767Z" fill="#06967C" stroke="black"/>
<path d="M45.1013 85.41L47.9985 87.2124L47.3547 84.2085C47.5693 83.9081 48.1272 83.2472 48.6423 83.0069C49.1573 82.7666 49.0715 81.9055 48.9642 81.5049C48.8569 80.9042 48.7067 79.5824 48.9642 79.1018C49.2217 78.6212 49.5007 77.7 49.608 77.2995C48.9642 76.7988 47.6122 75.7374 47.3547 75.4971C47.0971 75.2568 45.7451 74.5959 45.1013 74.2956L43.1699 73.3944L40.5946 74.2956L41.5603 76.0979L43.1699 77.2995L44.4575 79.1018L46.067 81.5049L45.1013 83.3073V85.41Z" fill="#F1AE00"/>
<path d="M57.9776 82.4061L61.1967 85.1096V82.4061C60.6602 81.5049 59.7159 79.7026 60.231 79.7026C60.8748 79.7026 57.9776 79.1018 57.0119 77.9002L55.0804 75.4971L52.8271 73.3944L52.1833 74.2956V76.0979C52.8271 77.0992 54.3079 79.222 55.0804 79.7026C55.853 80.1832 56.0462 80.9042 56.0462 81.2046L57.9776 82.4061Z" fill="#F1AE00"/>
<path d="M119.784 271.352V264.143L125.9 250.926V243.716L120.75 233.803L124.291 226.294L135.557 222.989L137.811 216.08L136.201 209.472L136.845 197.456L136.201 188.144L136.845 179.433L139.42 173.725L138.455 166.816L136.201 162.01V155.401V150.595L139.42 138.279M47.9985 87.2124L45.1013 85.41V83.3073L46.067 81.5049L44.4575 79.1018L43.1699 77.2995L41.5603 76.0979L40.5946 74.2956L43.1699 73.3944L45.1013 74.2956C45.7451 74.5959 47.0971 75.2568 47.3547 75.4971C47.6122 75.7374 48.9642 76.7988 49.608 77.2995C49.5007 77.7 49.2217 78.6212 48.9642 79.1018C48.7067 79.5824 48.8569 80.9042 48.9642 81.5049C49.0715 81.9055 49.1573 82.7666 48.6423 83.0069C48.1272 83.2472 47.5693 83.9081 47.3547 84.2085L47.9985 87.2124ZM61.1967 85.1096L57.9776 82.4061L56.0462 81.2046C56.0462 80.9042 55.853 80.1832 55.0804 79.7026C54.3079 79.222 52.8271 77.0992 52.1833 76.0979V74.2956L52.8271 73.3944L55.0804 75.4971C55.4024 75.8976 56.2393 76.939 57.0119 77.9002C57.9776 79.1018 60.8748 79.7026 60.231 79.7026C59.7159 79.7026 60.6602 81.5049 61.1967 82.4061V85.1096Z" stroke="black"/>
<path d="M83.7302 95.9236L78.5797 82.406H77.614L80.8331 93.5205V98.3268L83.7302 102.532V114.548L80.8331 123.86L78.5797 125.662L73.7511 131.069V136.176H77.614V131.069L80.8331 129.868L83.7302 123.86L86.3055 105.236L83.7302 95.9236Z" fill="#D9D9D9"/>
<path d="M80.8331 89.6154L78.5797 82.406M78.5797 82.406L83.7302 95.9236L86.3055 105.236L83.7302 123.86L80.8331 129.868L77.614 131.069V136.176H73.7511V131.069L78.5797 125.662L80.8331 123.86L83.7302 114.548V102.532L80.8331 98.3268V93.5205L77.614 82.406H78.5797Z" stroke="black"/>
<ellipse cx="55.7243" cy="20.8258" rx="3.54098" ry="3.00391" fill="black"/>
<ellipse cx="53.7929" cy="20.5255" rx="0.965723" ry="0.901174" fill="white"/>
<ellipse cx="20.6364" cy="25.9325" rx="1.93145" ry="2.10274" fill="black"/>
<ellipse cx="19.9925" cy="25.6321" rx="0.643815" ry="0.600783" fill="white"/>
<path d="M84.3741 53.746L107.23 23.0144L105.942 19.3239L104.976 13.3161L113.346 19.9247L112.702 20.5255L110.771 21.1263L109.161 21.7271L107.23 23.0144L105.942 26.2329V30.138L104.976 33.4423V38.2486L103.367 41.5529L101.757 38.2486L100.148 40.9521C99.1818 41.9534 97.0572 44.0161 96.2847 44.2564C95.3189 44.5568 96.2847 45.7584 96.2847 46.3591V48.1615C95.7482 49.0627 94.5464 50.9852 94.0313 51.4658C93.3875 52.0666 93.0656 54.4697 93.0656 55.0705C93.0656 55.6713 90.1742 58.0744 89.8465 58.9756C89.5844 59.6965 89.7373 61.6791 89.8465 62.5803L88.237 64.3826H86.9493C86.5201 63.4815 85.5973 61.5589 85.3398 61.0783C85.0823 60.5977 84.5887 60.077 84.3741 59.8768V56.2721V53.746L81.155 58.0744V56.2721L79.5455 53.5685L81.155 50.865V49.3631L82.1207 48.7623C82.5499 48.8624 83.4084 49.2429 83.4084 49.9638C83.4084 50.865 84.3741 51.7662 84.3741 52.6674V53.746Z" fill="#444463"/>
<path d="M107.23 23.0144L81.155 58.0744V56.2721L79.5455 53.5685L81.155 50.865V49.3631L82.1207 48.7623C82.5499 48.8624 83.4084 49.2429 83.4084 49.9638C83.4084 50.865 84.3741 51.7662 84.3741 52.6674C84.3741 53.3883 84.3741 55.3709 84.3741 56.2721V59.8768C84.5887 60.077 85.0823 60.5977 85.3398 61.0783C85.5973 61.5589 86.5201 63.4815 86.9493 64.3826H88.237L89.8465 62.5803C89.7373 61.6791 89.5844 59.6965 89.8465 58.9756C90.1742 58.0744 93.0656 55.6713 93.0656 55.0705C93.0656 54.4697 93.3875 52.0666 94.0313 51.4658C94.5464 50.9852 95.7482 49.0627 96.2847 48.1615C96.2847 47.761 96.2847 46.8398 96.2847 46.3591C96.2847 45.7584 95.3189 44.5568 96.2847 44.2564C97.0572 44.0161 99.1818 41.9534 100.148 40.9521L101.757 38.2486L103.367 41.5529L104.976 38.2486V33.4423L105.942 30.138V26.2329L107.23 23.0144ZM107.23 23.0144L109.161 21.7271L110.771 21.1263L112.702 20.5255L113.346 19.9247L104.976 13.3161L105.942 19.3239L107.23 23.0144Z" stroke="black" stroke-opacity="0.84"/>
<path d="M86.6274 33.1419L87.5931 29.8376C88.0223 28.8363 88.9451 26.7736 89.2026 26.5333C89.4602 26.2929 89.3099 21.8271 89.2026 19.6243L90.1684 16.6203V14.818L87.5931 10.0117L85.9836 8.81016L89.2026 8.20938L91.1341 10.0117L92.4217 11.5137V16.6203V21.727L91.456 25.3317L91.1341 28.9364L88.5588 33.1419L85.9836 33.8285L86.6274 33.1419Z" fill="#D9D9D9"/>
<path d="M81.1549 48.4618L79.8673 40.3513L85.9836 33.8285M85.9836 33.8285L86.6274 33.1419L87.5931 29.8376C88.0223 28.8363 88.9451 26.7736 89.2026 26.5333C89.4602 26.2929 89.3099 21.8271 89.2026 19.6243L90.1684 16.6203V14.818L87.5931 10.0117L85.9836 8.81016L89.2026 8.20938L91.1341 10.0117L92.4217 11.5137V16.6203M85.9836 33.8285L88.5588 33.1419L91.1341 28.9364L91.456 25.3317M91.456 25.3317L92.4217 21.727V16.6203M91.456 25.3317L92.4217 16.6203" stroke="black" stroke-opacity="0.84"/>
<path d="M38.0194 59.5764L35.4442 61.0783C34.9076 60.878 33.8346 60.2973 33.8346 59.5764C33.8346 58.8554 32.3324 59.6765 31.5813 60.1771C31.0448 59.9769 29.9717 59.4562 29.9717 58.9756C29.9717 58.3748 28.0403 57.774 27.0746 57.1732C26.302 56.6926 24.8212 56.5724 24.1774 56.5724L26.4307 57.774C26.6453 58.1745 27.0746 59.0957 27.0746 59.5764C27.0746 60.1771 28.6841 61.0783 29.006 61.3787C29.2635 61.619 27.8257 62.2799 27.0746 62.5803L24.1774 61.3787C23.5336 60.9782 22.1172 60.057 21.6021 59.5764C21.0871 59.0957 17.9538 59.3761 16.4516 59.5764C17.0954 59.3761 18.5118 58.9756 19.0269 58.9756C19.6707 58.9756 20.3145 57.1732 20.3145 56.5724C20.3145 55.9717 22.8898 55.0705 23.2117 53.5685C23.4692 52.3669 24.1774 54.4697 24.4993 55.6713L28.0403 53.5685C28.8987 52.9677 30.6799 51.7061 30.9374 51.4658C31.195 51.2255 32.9762 53.168 33.8346 54.1693L29.9717 55.0705V57.774L32.8689 58.3748L33.8346 56.5724C34.8003 56.5724 36.8605 56.5124 37.3756 56.272C37.8907 56.0317 39.0924 57.5737 39.629 58.3748L38.0194 59.5764Z" fill="url(#paint0_radial_65_3)"/>
<path d="M19.0269 72.1928L33.8346 66.4853L29.006 66.7857C27.8257 66.6856 25.3363 66.5454 24.8212 66.7857C24.3062 67.026 23.1044 67.6869 22.5679 67.9873C21.4948 67.8872 19.2844 67.6268 19.0269 67.3865C18.705 67.0861 15.4859 66.4853 14.8421 66.4853C14.1983 66.4853 12.5887 67.6869 12.5887 68.5881C12.5887 69.4893 14.5202 69.1889 14.8421 69.1889C15.164 69.1889 16.4516 70.3904 16.7735 70.9912C17.031 71.4718 18.3831 71.9925 19.0269 72.1928Z" fill="url(#paint1_radial_65_3)"/>
<path d="M38.0194 59.5764L35.4442 61.0783C34.9076 60.878 33.8346 60.2973 33.8346 59.5764C33.8346 58.8554 32.3324 59.6765 31.5813 60.1771C31.0448 59.9769 29.9717 59.4562 29.9717 58.9756C29.9717 58.3748 28.0403 57.774 27.0746 57.1732C26.302 56.6926 24.8212 56.5724 24.1774 56.5724L26.4307 57.774C26.6453 58.1745 27.0746 59.0957 27.0746 59.5764C27.0746 60.1771 28.6841 61.0783 29.006 61.3787C29.2635 61.619 27.8257 62.2799 27.0746 62.5803L24.1774 61.3787C23.5336 60.9782 22.1172 60.057 21.6021 59.5764C21.0871 59.0957 17.9538 59.3761 16.4516 59.5764C17.0954 59.3761 18.5118 58.9756 19.0269 58.9756C19.6707 58.9756 20.3145 57.1732 20.3145 56.5724C20.3145 55.9717 22.8898 55.0705 23.2117 53.5685C23.4692 52.3669 24.1774 54.4697 24.4993 55.6713L28.0403 53.5685C28.8987 52.9677 30.6799 51.7061 30.9374 51.4658C31.195 51.2255 32.9762 53.168 33.8346 54.1693L29.9717 55.0705V57.774L32.8689 58.3748L33.8346 56.5724C34.8003 56.5724 36.8605 56.5124 37.3756 56.272C37.8907 56.0317 39.0924 57.5737 39.629 58.3748L38.0194 59.5764Z" stroke="black" stroke-opacity="0.84"/>
<path d="M19.0269 72.1928L33.8346 66.4853L29.006 66.7857C27.8257 66.6856 25.3363 66.5454 24.8212 66.7857C24.3062 67.026 23.1044 67.6869 22.5679 67.9873C21.4948 67.8872 19.2844 67.6268 19.0269 67.3865C18.705 67.0861 15.4859 66.4853 14.8421 66.4853C14.1983 66.4853 12.5887 67.6869 12.5887 68.5881C12.5887 69.4893 14.5202 69.1889 14.8421 69.1889C15.164 69.1889 16.4516 70.3904 16.7735 70.9912C17.031 71.4718 18.3831 71.9925 19.0269 72.1928Z" stroke="black" stroke-opacity="0.84"/>
<path d="M72.7854 75.4971L70.854 83.908V86.6115C72.0343 85.7104 74.5881 83.7278 75.3607 83.0068C76.3264 82.1057 77.2921 81.5049 78.2579 80.6037C79.0304 79.8828 78.5798 78.501 78.2579 77.9002V73.3943L77.2921 69.1888L76.0045 72.4931L72.7854 75.4971Z" fill="url(#paint2_linear_65_3)"/>
<path d="M49.6081 101.03L53.1491 109.742L46.389 99.5284C45.6379 97.5258 44.1357 93.1601 44.1357 91.7182V86.6115L49.6081 93.5205V101.03Z" fill="url(#paint3_linear_65_3)"/>
<path d="M111.736 204.665C111.221 206.107 110.449 208.47 110.127 209.472C109.554 210.77 108.469 213.304 107.758 215.179L107.23 188.144L111.736 191.448V197.756C111.736 199.859 112.38 202.863 111.736 204.665Z" fill="url(#paint4_linear_65_3)"/>
<path d="M102.079 241.313L103.689 233.803L105.298 230.499L102.079 225.392C102.079 224.091 102.401 221.247 103.689 220.286C105.298 219.084 106.586 218.784 107.23 216.681C107.352 216.282 107.537 215.762 107.758 215.179M107.758 215.179C108.469 213.304 109.554 210.77 110.127 209.472C110.449 208.47 111.221 206.107 111.736 204.665C112.38 202.863 111.736 199.859 111.736 197.756C111.736 196.074 111.736 192.85 111.736 191.448L107.23 188.144L107.758 215.179ZM70.854 83.908L72.7854 75.4971L76.0045 72.4931L77.2921 69.1888L78.2579 73.3943V77.9002C78.5798 78.501 79.0305 79.8828 78.2579 80.6037C77.2921 81.5049 76.3264 82.1057 75.3607 83.0068C74.5881 83.7278 72.0343 85.7104 70.854 86.6115V83.908ZM53.1491 109.742L49.6081 101.03V93.5205L44.1357 86.6115C44.1357 87.713 44.1357 90.2763 44.1357 91.7182C44.1357 93.1601 45.6379 97.5258 46.389 99.5284L53.1491 109.742Z" stroke="#020071" stroke-opacity="0.84"/>
<path d="M7.11623 78.2006L11.301 81.2045L15.1639 79.1018L19.9925 76.3982L7.11623 68.5881V70.6908V78.2006Z" fill="#F1AE00"/>
<path d="M19.0268 76.999L15.1639 79.1018M15.1639 79.1018L11.301 81.2045L7.11623 78.2006V70.6908V68.5881L19.9925 76.3982L15.1639 79.1018Z" stroke="black" stroke-opacity="0.84"/>
<path d="M34.1565 177.931L38.9851 192.65V175.227L34.1565 171.322V177.931Z" fill="#05FB00"/>
<path d="M47.9985 171.322L53.471 175.227L55.7243 167.116L47.9985 159.306V171.322Z" fill="#05FB00"/>
<path d="M65.0596 129.267L64.0939 134.674L61.8405 131.069L59.9091 132.271L57.9777 129.267L59.9091 123.86L61.8405 124.761L64.0939 122.058V116.35L65.0596 111.844L67.313 114.548V123.86L65.0596 124.761V129.267Z" fill="#05FB00"/>
<path d="M65.0596 62.5802L67.313 65.2838L71.1759 67.6869L73.1073 59.2759L70.2101 53.2681L65.0596 59.2759C65.8107 59.5763 67.6349 60.2372 68.9225 60.4775C70.2101 60.7178 69.459 61.3787 68.9225 61.6791H67.313L65.0596 62.5802Z" fill="#05FB00"/>
<path d="M34.1565 177.931L38.9851 192.65V175.227L34.1565 171.322V177.931Z" stroke="black" stroke-opacity="0.84"/>
<path d="M47.9985 171.322L53.471 175.227L55.7243 167.116L47.9985 159.306V171.322Z" stroke="black" stroke-opacity="0.84"/>
<path d="M65.0596 129.267L64.0939 134.674L61.8405 131.069L59.9091 132.271L57.9777 129.267L59.9091 123.86L61.8405 124.761L64.0939 122.058V116.35L65.0596 111.844L67.313 114.548V123.86L65.0596 124.761V129.267Z" stroke="black" stroke-opacity="0.84"/>
<path d="M65.0596 62.5802L67.313 65.2838L71.1759 67.6869L73.1073 59.2759L70.2101 53.2681L65.0596 59.2759C65.8107 59.5763 67.6349 60.2372 68.9225 60.4775C70.2101 60.7178 69.459 61.3787 68.9225 61.6791H67.313L65.0596 62.5802Z" stroke="black" stroke-opacity="0.84"/>
<path d="M87.2712 82.1056V78.8013L83.7303 76.6986L85.6617 74.2955H90.8122L94.0313 77.5998L94.997 81.2045L96.2847 83.3072H99.1818L107.551 92.9197H105.942H104.654H101.113L99.1818 90.817L96.2847 87.2123L92.7437 86.0107L88.8808 84.8092L87.2712 82.1056Z" fill="#3204B5" stroke="#00F1E3"/>
<defs>
<radialGradient id="paint0_radial_65_3" cx="0" cy="0" r="1" gradientUnits="userSpaceOnUse" gradientTransform="translate(26.1088 61.8191) rotate(90) scale(10.3737 13.5201)">
<stop offset="0.661675" stop-color="#6139FF"/>
<stop offset="1" stop-opacity="0"/>
</radialGradient>
<radialGradient id="paint1_radial_65_3" cx="0" cy="0" r="1" gradientUnits="userSpaceOnUse" gradientTransform="translate(26.1088 61.8191) rotate(90) scale(10.3737 13.5201)">
<stop offset="0.661675" stop-color="#6139FF"/>
<stop offset="1" stop-opacity="0"/>
</radialGradient>
<linearGradient id="paint2_linear_65_3" x1="78.079" y1="69.1888" x2="78.079" y2="241.313" gradientUnits="userSpaceOnUse">
<stop stop-color="#E8D426"/>
<stop offset="0.119792" stop-color="#FF15E8" stop-opacity="0"/>
</linearGradient>
<linearGradient id="paint3_linear_65_3" x1="78.079" y1="69.1888" x2="78.079" y2="241.313" gradientUnits="userSpaceOnUse">
<stop stop-color="#E8D426"/>
<stop offset="0.119792" stop-color="#FF15E8" stop-opacity="0"/>
</linearGradient>
<linearGradient id="paint4_linear_65_3" x1="78.079" y1="69.1888" x2="78.079" y2="241.313" gradientUnits="userSpaceOnUse">
<stop stop-color="#E8D426"/>
<stop offset="0.119792" stop-color="#FF15E8" stop-opacity="0"/>
</linearGradient>
</defs>
</svg>
