<svg width="202" height="105" viewBox="0 0 202 105" fill="none" xmlns="http://www.w3.org/2000/svg">
<path fill-rule="evenodd" clip-rule="evenodd" d="M202 65.2446L101 0L0 65.2446H202ZM174.237 65.2446L101 10.8741L27.7631 65.2446H174.237Z" fill="black"/>
<path fill-rule="evenodd" clip-rule="evenodd" d="M144.115 46.543C144.115 46.5784 144.114 46.6138 144.112 46.649C144.11 46.6771 144.108 46.705 144.105 46.733C144.101 46.7678 144.096 46.8026 144.09 46.8374H144.115V56.3044H124.897C124.427 51.228 114.586 47.1739 102.515 47.1739C90.4435 47.1739 80.6024 51.228 80.1321 56.3044H80.1145V65.4348H144.115V72.1516H144.059L144.099 94.9022L144.026 94.9022C144.075 95.0673 144.1 95.2337 144.1 95.4012C144.109 100.087 124.757 104.985 100.915 105C77.0722 105.015 57.7672 100.143 57.759 95.4571C57.7587 95.2895 57.7831 95.1231 57.8316 94.958L57.7581 94.958L57.741 85.2174H80.1145V85.9783H80.1321C80.6024 91.0546 90.4435 95.1087 102.515 95.1087C114.586 95.1087 124.427 91.0546 124.897 85.9783H124.915V76.087H57.725L57.7181 72.1516H57.7143V46.8374H57.7395C57.7227 46.7397 57.7143 46.6416 57.7143 46.543C57.7143 41.8286 77.0558 37.2826 100.915 37.2826C124.774 37.2826 144.115 41.8286 144.115 46.543ZM57.725 76.087L57.741 85.2174H57.7143V76.087H57.725Z" fill="black"/>
</svg>
