<svg width="1440" height="1024" viewBox="0 0 1440 1024" fill="none" xmlns="http://www.w3.org/2000/svg">
<g clip-path="url(#clip0_8_2)">
<rect width="1440" height="1024" fill="white"/>
<path d="M689 1007.5C687.833 1014.83 686.2 1029.9 689 1031.5C691.8 1033.1 671.833 1098.17 661.5 1130.5" stroke="#A3A3A3"/>
<path d="M98.8046 516C98.8046 516 96.0093 511.71 96.9523 510.5M92.2724 522.427C92.2724 522.427 86.5862 516.007 89.08 516" stroke="#A3A3A3"/>
<path d="M217.344 636V623.5" stroke="#A3A3A3" stroke-width="3"/>
<path d="M194.654 543.104C198.049 537.438 210.491 528.104 233.089 536.104" stroke="#A3A3A3" stroke-width="3"/>
<path d="M284.954 543.104C281.558 537.438 269.116 528.104 246.518 536.104" stroke="#A3A3A3" stroke-width="3"/>
<path d="M81.6627 565.088L162.879 688L169.647 649L101.516 546C106.93 557.746 93.394 569.5 81.6627 565.088Z" stroke="#A3A3A3" stroke-width="3"/>
<path d="M387.294 565.088L306.077 688L299.309 649L367.441 546C362.026 557.746 375.562 569.5 387.294 565.088Z" stroke="#A3A3A3" stroke-width="3"/>
<path d="M177.983 606C177.057 605.054 180.761 530.819 175.667 510C221.109 501.377 245.945 508.639 290.974 509V606" stroke="#A3A3A3" stroke-width="3"/>
<path d="M195.588 566C200.868 580.724 229.786 622.504 271.532 587.166L195.588 566Z" stroke="#A3A3A3" stroke-width="3"/>
<path d="M257.632 636V622" stroke="#A3A3A3" stroke-width="3"/>
<path d="M172.755 637.977C148.675 731.977 162.722 785.644 172.755 801.477L209.472 814H267.82L295.008 805.477C322.422 752.677 299.505 637.954 295.008 636.477C290.51 635 190.067 634.873 172.755 637.977Z" stroke="#A3A3A3" stroke-width="3"/>
<path d="M291.157 606.459L256.89 622.459M217.344 623.5L177.983 606.5" stroke="#A3A3A3" stroke-width="3"/>
<path d="M187.678 440C161.375 468 169.802 534.833 177.983 557.5C179.088 556.3 175.979 525.667 174.286 510.5L176.602 509C195.125 501 260.567 505.667 290.973 509C302.984 472 302.984 439.5 302.984 437.5C302.984 435.5 291.871 446.667 286.314 454L284.924 431.5C277.206 439 261.493 453.1 260.381 449.5C259.27 445.9 257.14 427 256.214 418C255.751 422.5 253.065 433.8 246.026 443C237.228 454.5 240.006 446.5 239.543 443C239.172 440.2 236.919 429.5 235.838 424.5C230.281 434 218.612 453.2 216.389 454C214.166 454.8 209.597 439.333 207.591 431.5L196.477 457L187.678 440Z" fill="#D9D9D9" stroke="#A3A3A3" stroke-width="3"/>
<rect x="217.807" y="622" width="38.8985" height="147" fill="white"/>
<rect width="26.3794" height="37.0231" transform="matrix(-0.785756 0.618537 -0.559597 -0.828765 186.671 674.683)" fill="white"/>
<rect width="25.1707" height="38.1251" transform="matrix(-0.808877 -0.587978 -0.529091 0.848565 324.509 657.774)" fill="white"/>
<path d="M295.141 806L344.235 858C355.195 867.5 377.291 900 378.032 904C378.958 909 405.817 889.5 418.783 880C429.897 875 435.917 880.7 434.064 887.5L403.038 940.5C400.414 947.333 388.868 955.3 363.677 932.5C338.485 909.7 281.866 852.333 256.706 826.5H211.324L157.607 956.5C156.681 965.667 158.533 978 124.266 968.5C89.9981 959 83.2063 948.667 77.9581 946.5C74.1788 938.833 75.1217 935.544 85.3673 932.5L125.655 939L148.809 870.5L172.426 801" stroke="#A3A3A3" stroke-width="3"/>
<path d="M367.381 546.5C365.375 544.333 363.744 533.427 367.844 529C373.401 523 376.643 533.5 373.401 536.5C382.354 531.333 399.426 526.7 396.092 549.5C395.629 552.833 393.313 563 386.83 565.5" stroke="#A3A3A3" stroke-width="3"/>
<path d="M367.381 546.5C365.375 544.333 363.744 533.427 367.844 529C373.401 523 376.643 533.5 373.401 536.5C382.354 531.333 399.426 526.7 396.092 549.5C395.629 552.833 393.313 563 386.83 565.5" stroke="#A3A3A3" stroke-width="3"/>
<path d="M100.418 546.565C103.023 545.35 108.265 535.863 105.967 530.115C102.853 522.324 96.2517 530.792 98.2394 534.872C91.6838 526.503 77.3995 515.395 72.7073 537.915C71.4751 546.565 74.7166 563 81.1997 564.5" stroke="#A3A3A3" stroke-width="3"/>
<path d="M373.753 536.675C371.041 545.402 376.687 545.507 383.126 543C380.414 551.727 380.503 554.832 386.942 552.326C384.23 561.053 386.412 562.507 392.85 560" stroke="#A3A3A3" stroke-width="3"/>
<path d="M97.8704 534.5C102.501 540.5 92.5884 543.04 87.4604 538.145C86.9984 547.337 85.3742 549.081 80.2462 544.186C83.052 554 77.9581 553.5 72.8643 547" stroke="#A3A3A3" stroke-width="3"/>
<path d="M382.663 543.5C382.663 543.5 390.998 538.5 390.535 537M386.367 553C386.367 553 397.018 546 394.703 545" stroke="#A3A3A3" stroke-width="3"/>
<path d="M209.472 814L226.606 660.5L216.881 636" stroke="#A3A3A3" stroke-width="3"/>
<path d="M263.652 814L246.518 660.5L256.243 636" stroke="#A3A3A3" stroke-width="3"/>
<path d="M378.495 905L363.213 932M157.607 957L125.655 938.5" stroke="#A3A3A3" stroke-width="3"/>
<path d="M217.344 636C223.519 643.333 240.22 653.3 257.632 634.5" stroke="#A3A3A3" stroke-width="3"/>
<path d="M394.211 923C394.211 927.098 390.541 930.5 385.912 930.5C381.283 930.5 377.614 927.098 377.614 923C377.614 918.902 381.283 915.5 385.912 915.5C390.541 915.5 394.211 918.902 394.211 923Z" fill="#F3F3F3" stroke="#A3A3A3"/>
<path d="M133.035 957C133.035 961.123 129.547 964.5 125.2 964.5C120.853 964.5 117.365 961.123 117.365 957C117.365 952.877 120.853 949.5 125.2 949.5C129.547 949.5 133.035 952.877 133.035 957Z" fill="#F3F3F3" stroke="#A3A3A3"/>
<path d="M1032.45 695.754L959.032 697.126L898.524 694.499C900.834 663.245 913.998 599.227 941.25 594.444C968.214 584.371 974.727 584.28 1002.1 595.648C1021.9 600.433 1030.77 664.484 1032.45 695.754Z" fill="#D9D9D9"/>
<path d="M957.813 697.148L1032.45 695.754C1030.77 664.484 1021.9 600.433 1002.1 595.648C974.727 584.28 968.214 584.371 941.25 594.444C913.998 599.227 900.834 663.245 898.524 694.499L959.557 697.148" stroke="#A3A3A3"/>
<path d="M897.508 711.022C897.612 708.5 904.061 704.313 903.866 700.142C903.602 694.49 897.934 698.92 898.285 701.941C896.087 695.318 889.841 685.569 882.438 699.558C881.345 701.593 882.438 711.022 882.438 711.022" stroke="#A3A3A3" stroke-width="3"/>
<path d="M918.838 628.649C922.977 646.155 920.719 708.358 920.719 709.619C920.719 710.04 956.081 722.367 956.081 722.367H981.285L1012.51 709.199V626.967C975.929 626.664 955.754 621.398 918.838 628.649Z" fill="white" stroke="#A3A3A3" stroke-width="3"/>
<path d="M936.314 694.796C941.242 700.557 966.468 715.42 998.543 695.799L936.314 694.796Z" fill="white" stroke="#A3A3A3" stroke-width="3"/>
<path d="M898.524 784.595L938.024 791.321L947.429 769.88L910.186 764.835L897.772 709.761C898.073 718.842 887.866 715.507 882.725 712.704L898.524 784.595Z" stroke="#A3A3A3" stroke-width="3"/>
<path d="M932.323 865.297L932.331 865.251L932.337 865.205L933.688 853.5H959.028L957.621 858.305L935.824 932.723L935.709 933.118L935.811 933.516C936.036 934.399 935.881 936.678 933.609 939.899C931.368 943.075 927.146 947.034 919.607 951.159C915.903 953.186 913.079 953.899 910.963 953.861C908.898 953.823 907.426 953.07 906.338 951.948C904.247 949.793 903.422 946.095 903.387 942.906L920.983 934.489L921.698 934.147L921.818 933.364L920.336 933.136C921.818 933.364 921.818 933.363 921.818 933.363L921.819 933.361L921.82 933.352L921.826 933.316L921.847 933.174L921.932 932.622L922.254 930.524C922.532 928.715 922.93 926.128 923.408 923.018C924.364 916.798 925.642 908.482 926.933 900.101C929.516 883.317 932.139 866.324 932.323 865.297ZM959.128 853.5H978.069L983.246 863.914C983.247 863.921 983.249 863.927 983.251 863.934C983.279 864.055 983.32 864.244 983.374 864.504C983.481 865.02 983.629 865.773 983.812 866.734C984.177 868.653 984.68 871.376 985.273 874.637C986.46 881.158 988.007 889.815 989.543 898.46C991.078 907.105 992.602 915.737 993.742 922.208C994.312 925.444 994.786 928.139 995.118 930.025L995.502 932.214L995.603 932.791L995.629 932.939L995.636 932.976L995.638 932.985L995.638 932.988C995.638 932.988 995.638 932.989 997.116 932.729L995.638 932.989L995.772 933.749L996.468 934.083L1014.06 942.499C1014.03 945.688 1013.2 949.386 1011.11 951.542C1010.03 952.663 1008.55 953.416 1006.49 953.454C1004.37 953.493 1001.55 952.78 997.844 950.753C990.305 946.628 986.084 942.669 983.842 939.492C981.57 936.271 981.415 933.992 981.641 933.109L981.741 932.716L981.63 932.327L960.503 858.315L959.128 853.5Z" fill="white" stroke="#A3A3A3" stroke-width="3"/>
<path d="M931.253 651.323C933.886 648.38 942.538 644.26 956.081 651.323" stroke="#A3A3A3" stroke-width="4"/>
<path d="M1002.35 651.439C999.718 648.497 991.066 644.376 977.523 651.439" stroke="#A3A3A3" stroke-width="4"/>
<path d="M914.685 858.391C907.143 891.653 939.182 887.031 972.643 888.521C972.643 888.521 1008.72 890.87 1003.21 857.706C996.32 816.252 973.772 748.417 973.772 745.067C973.772 742.387 976.405 722.457 976.405 722.037C976.405 721.632 949.32 720.355 949.32 720.776C949.32 721.196 953.458 742.49 953.458 745.183C953.458 748.55 924.111 816.825 914.685 858.391Z" fill="white" stroke="#A3A3A3" stroke-width="3"/>
<path d="M1026.43 784.595L988.057 793.844L980.909 769.039L1014.77 764.835L1027.18 709.761C1026.88 718.842 1037.09 715.507 1042.23 712.704L1026.43 784.595Z" stroke="#A3A3A3" stroke-width="3"/>
<path d="M1027.18 710.181C1027.08 707.659 1021.04 702.632 1021.23 698.461C1021.5 692.808 1027.16 697.238 1026.81 700.26C1029.01 693.636 1035.26 683.887 1042.66 697.877C1043.75 699.912 1044.74 708.172 1042.66 712.283" stroke="#A3A3A3" stroke-width="3"/>
<path d="M1103.19 599.374C1116.51 591.448 1127.74 587.522 1139.15 587.5C1150.57 587.478 1162.37 591.364 1176.82 599.451C1182.6 602.68 1186 608.946 1186 615.657V655.082C1186 665.852 1177.27 674.582 1166.5 674.582H1114.03C1103.26 674.582 1094.53 665.852 1094.53 655.082V615.227C1094.53 608.733 1097.7 602.642 1103.19 599.374Z" fill="white" stroke="#A3A3A3" stroke-width="3"/>
<path d="M1093.03 648.365C1097.16 663.443 1094.91 717.017 1094.91 718.103C1094.91 718.465 1130.22 729.082 1130.22 729.082H1155.39L1186.57 717.741V646.917C1150.04 646.656 1129.9 642.121 1093.03 648.365Z" fill="white" stroke="#A3A3A3" stroke-width="3"/>
<path d="M1110.51 701.041C1115.43 706.802 1140.66 721.665 1172.74 702.045L1110.51 701.041Z" fill="white" stroke="#A3A3A3" stroke-width="3"/>
<path d="M1101.52 849.772L1101.53 849.721L1101.54 849.669L1103.52 834.582H1167.83L1175.39 847.992C1175.39 848.008 1175.39 848.025 1175.4 848.046C1175.44 848.201 1175.5 848.441 1175.58 848.769C1175.73 849.42 1175.94 850.368 1176.2 851.577C1176.72 853.992 1177.44 857.417 1178.29 861.519C1179.98 869.721 1182.18 880.609 1184.37 891.482C1186.56 902.355 1188.74 913.212 1190.36 921.351C1191.17 925.42 1191.85 928.81 1192.32 931.182C1192.56 932.369 1192.74 933.3 1192.87 933.936L1193.01 934.661L1193.05 934.847L1193.06 934.894L1193.06 934.906L1193.06 934.909C1193.06 934.909 1193.06 934.91 1194.54 934.617L1193.06 934.91L1193.22 935.69L1193.95 935.999L1219.34 946.712C1219.33 950.771 1218.17 955.619 1215.02 958.481C1211.8 961.409 1205.9 962.752 1195.2 957.589C1184.15 952.257 1178.08 950.679 1174.86 949.972C1174.51 949.895 1174.21 949.832 1173.95 949.777C1173.64 949.712 1173.39 949.658 1173.16 949.605C1173.17 949.572 1173.18 949.536 1173.19 949.499L1173.32 949.08L1173.19 948.661L1141.72 841.121L1140.3 836.283L1138.84 841.108L1107.34 945.274L1107.21 945.699L1107.33 946.126C1107.54 946.846 1107.45 946.963 1107.4 947.036C1107.39 947.04 1107.39 947.045 1107.39 947.049C1107.17 947.347 1106.56 947.818 1104.86 948.663C1103.58 949.298 1101.87 950.063 1099.56 951.091C1098.93 951.373 1098.26 951.674 1097.53 951.999C1094.19 953.496 1089.89 955.451 1084.4 958.1C1073.71 963.264 1067.8 961.92 1064.58 958.993C1061.44 956.13 1060.28 951.282 1060.26 947.223L1085.65 936.51L1086.41 936.192L1086.55 935.385L1085.07 935.128C1086.55 935.385 1086.55 935.385 1086.55 935.384L1086.55 935.382L1086.55 935.37L1086.56 935.325L1086.59 935.147L1086.71 934.453L1087.17 931.814C1087.56 929.539 1088.13 926.286 1088.81 922.374C1090.17 914.551 1092 904.092 1093.84 893.55C1097.52 872.444 1101.26 851.067 1101.52 849.772Z" fill="white" stroke="#A3A3A3" stroke-width="3"/>
<path d="M1105.44 657.568C1108.08 654.626 1116.73 650.506 1130.27 657.568" stroke="#A3A3A3" stroke-width="4"/>
<path d="M1176.54 657.685C1173.91 654.742 1165.26 650.622 1151.72 657.685" stroke="#A3A3A3" stroke-width="4"/>
<path d="M1214.24 787.365L1165.27 796.082L1168.06 774.012L1202.52 768.807L1214.99 717.082C1214.69 725.611 1224.94 722.479 1230.1 719.846L1214.24 787.365Z" stroke="#A3A3A3" stroke-width="3"/>
<path d="M1065.3 782.079L1114.06 791.361L1111.28 767.861L1076.96 762.319L1064.55 707.245C1064.85 716.326 1054.64 712.991 1049.5 710.188L1065.3 782.079Z" stroke="#A3A3A3" stroke-width="3"/>
<path d="M1215.09 719.22C1214.98 717.07 1208.95 712.787 1209.14 709.232C1209.4 704.415 1215.07 708.19 1214.72 710.765C1216.92 705.121 1223.17 696.813 1230.57 708.734C1231.66 710.469 1230.1 717.682 1230.57 718.535" stroke="#A3A3A3" stroke-width="3"/>
<path d="M1064.06 706.05C1064.16 703.527 1070.2 698.5 1070 694.329C1069.74 688.676 1064.07 693.106 1064.42 696.128C1062.23 689.504 1055.98 679.755 1048.58 693.745C1047.48 695.78 1046.5 704.041 1048.58 708.152" stroke="#A3A3A3" stroke-width="3"/>
<path d="M1094.15 837.704C1086.55 863.661 1118.83 860.054 1152.53 861.217C1152.53 861.217 1188.88 863.05 1183.32 837.17C1176.38 804.819 1186.57 766.266 1186.57 763.652C1186.57 761.561 1156.32 731.623 1156.32 731.295C1156.32 730.979 1129.04 729.982 1129.04 730.311C1129.04 730.639 1099.34 755.307 1099.34 757.409C1099.34 760.036 1103.65 805.266 1094.15 837.704Z" fill="white" stroke="#A3A3A3" stroke-width="3"/>
<path d="M1093.96 647.082C1108.47 633.751 1147.12 614.864 1185.65 645.961L1093.96 647.082Z" fill="#D9D9D9" stroke="#A3A3A3" stroke-width="2"/>
<path d="M1181.02 773.082H1187.5L1183.79 791.082H1177.31L1181.02 773.082Z" fill="white"/>
<path d="M1103.43 769.772L1094.95 767.082L1095.1 785.89L1103.58 788.58L1103.43 769.772Z" fill="white"/>
<path d="M486.844 884.882C488.684 884.597 491.475 884.46 495.382 884.468C498.325 884.611 502.302 886.059 507.481 888.464C510.462 889.849 513.725 891.492 517.315 893.3C519.581 894.441 521.978 895.649 524.517 896.898L521.52 902.866L491.94 890.282C489.311 888.723 487.373 887.458 486.152 886.444C485.577 885.966 485.225 885.596 485.035 885.327C485.382 885.179 485.958 885.02 486.844 884.882ZM484.89 885.072C484.89 885.072 484.892 885.075 484.893 885.081C484.891 885.075 484.89 885.072 484.89 885.072ZM484.768 885.468C484.764 885.472 484.761 885.474 484.761 885.474C484.761 885.474 484.763 885.472 484.768 885.468Z" fill="white" stroke="#A3A3A3" stroke-width="3"/>
<path d="M682.164 893.002C680.43 892.313 677.735 891.564 673.919 890.712C671.019 890.208 666.826 890.768 661.249 892.016C658.04 892.735 654.5 893.647 650.604 894.652C648.144 895.286 645.541 895.957 642.791 896.639L644.436 903.265L676.038 897.284C678.941 896.316 681.106 895.488 682.516 894.75C683.202 894.392 683.63 894.094 683.87 893.867C683.567 893.64 683.03 893.345 682.164 893.002ZM684.043 893.666C684.043 893.666 684.042 893.669 684.039 893.674C684.043 893.669 684.044 893.666 684.043 893.666ZM684.072 894.047C684.075 894.052 684.077 894.055 684.077 894.055C684.077 894.055 684.076 894.052 684.072 894.047Z" fill="white" stroke="#A3A3A3" stroke-width="3"/>
<path d="M549.884 760L511 888.103L525.312 894C595.409 781.983 585.72 783.829 587 768.695L549.884 760Z" stroke="#A3A3A3" stroke-width="3"/>
<path d="M617.674 772L654 892.722L641.891 896C576.406 790.437 584.196 794.456 583 780.194L617.674 772Z" stroke="#A3A3A3" stroke-width="3"/>
<path d="M789.858 601.524L624.761 633.607L618.685 619.571L776.42 583.692C768.602 585.777 774.368 599.52 789.858 601.524Z" stroke="#A3A3A3" stroke-width="3"/>
<path d="M461 550.5L565.423 613L570.5 599.5L472.5 537C477.362 540.474 471.533 551.805 461 550.5Z" stroke="#A3A3A3" stroke-width="3"/>
<rect x="596.696" y="578.284" width="29" height="33" transform="rotate(21.8877 596.696 578.284)" fill="white" stroke="#A3A3A3" stroke-width="3"/>
<path d="M568.317 599.193L647.719 613.686C647.24 615.548 646.77 617.369 646.309 619.154C637.664 652.671 632.229 673.739 629.359 713.907L550.021 699.425L568.317 599.193Z" fill="white" stroke="#A3A3A3" stroke-width="3"/>
<path d="M531.601 749.447C533.169 734.455 539.781 716.066 550.792 690.774L631.373 697.256C637.618 721.324 640.422 739.283 639.32 754.344C638.227 769.288 633.281 781.459 623.841 793.963L542.597 787.428C533.435 775.793 530.049 764.278 531.601 749.447Z" fill="white" stroke="#A3A3A3" stroke-width="3"/>
<path d="M556.5 679L551 698L630.5 700.5L629.5 696L630.5 686.5L556.5 679Z" fill="white"/>
<path d="M561 608.5C563.667 610.167 569.1 613.6 569.5 614L577 609L570 599.5L564 599L561 608.5Z" fill="white"/>
<path d="M645.923 628.719L636.047 627.727L641.779 612.702L652.611 615.169L645.923 628.719Z" fill="white"/>
<path d="M707.443 478.486C685.184 438.434 655.069 451.528 656.706 450.244C658.342 448.961 632.677 459.862 596.966 437.835C532.798 398.255 530.271 518.566 546.229 576.903L667.344 606C689.985 580.183 729.702 518.537 707.443 478.486Z" fill="#BABABA" stroke="#A3A3A3" stroke-width="3"/>
<path d="M561.601 471.696C563.774 490.351 548.212 552.567 549.051 553.551L579.076 589.178L635.898 600.865L669.508 575.775L684.683 493.527C636.735 484.364 611.394 473.322 561.601 471.696Z" fill="white" stroke="#A3A3A3" stroke-width="3"/>
<path d="M578.076 528C577.245 517.939 582.866 503.416 612 525.813" stroke="#A3A3A3" stroke-width="3"/>
<path d="M654.924 528C655.755 518.658 650.134 505.172 621 525.969" stroke="#A3A3A3" stroke-width="3"/>
<path d="M654.751 556.55C646.473 569.995 608.188 605.417 570.272 562.487L654.751 556.55Z" stroke="#A3A3A3" stroke-width="3"/>
<path d="M471 537.5C472.736 536.03 475.348 526.239 471.801 523.235C466.995 519.164 464.191 526.288 466.995 528.324C459.251 524.818 444.484 521.675 447.368 537.144C447.769 539.406 455.392 548.804 461 550.5" stroke="#A3A3A3" stroke-width="3"/>
<path d="M775.5 585C776 584.5 775.218 577.239 778.764 574.235C783.571 570.164 786.374 577.288 783.571 579.324C791.314 575.818 806.081 572.675 803.197 588.144C802.797 590.406 795.173 599.804 789.565 601.5" stroke="#A3A3A3" stroke-width="3"/>
<path d="M34.81 478.878L53.6509 486.177L86.7841 415.18L21.0613 390.918L34.81 478.878Z" stroke="#A3A3A3"/>
<path d="M774 508.076L787 521.076L855.5 484.576L809.5 440.076L774 508.076Z" stroke="#A3A3A3"/>
<path d="M1439 850.076L1426 863.076L1357.5 826.576L1403.5 782.076L1439 850.076Z" stroke="#A3A3A3"/>
<path d="M63.1704 470.703L61.5933 477.278L29.7088 464.926L30.2462 457.549L63.1704 470.703Z" fill="#D9D9D9" stroke="#A3A3A3"/>
<path d="M804 514.076L799 518.076L777 496.076L781.5 491.076L804 514.076Z" fill="#D9D9D9" stroke="#A3A3A3"/>
<path d="M1409 856.076L1414 860.076L1436 838.076L1431.5 833.076L1409 856.076Z" fill="#D9D9D9" stroke="#A3A3A3"/>
<path d="M75.9201 445.879L73.187 455.643L25.1287 438.978L26.3146 428.082L75.9201 445.879Z" fill="#D9D9D9" stroke="#A3A3A3"/>
<path d="M829 501.798L821.222 507.576L787 475.798L794 468.576L829 501.798Z" fill="#D9D9D9" stroke="#A3A3A3"/>
<path d="M1384 843.798L1391.78 849.576L1426 817.798L1419 810.576L1384 843.798Z" fill="#D9D9D9" stroke="#A3A3A3"/>
<path d="M87.2528 422.385L83.7603 435.314L20.3502 412.702L21.7949 398.254L87.2528 422.385Z" fill="#D9D9D9" stroke="#A3A3A3"/>
<path d="M852 489.872L841.815 497.576L797 455.205L806.167 445.576L852 489.872Z" fill="#D9D9D9" stroke="#A3A3A3"/>
<path d="M1361 831.872L1371.19 839.576L1416 797.205L1406.83 787.576L1361 831.872Z" fill="#D9D9D9" stroke="#A3A3A3"/>
<path d="M139.969 390.706L144.565 396.234L149.678 389.545L144.611 383.953L139.969 390.706Z" stroke="#A3A3A3"/>
<path d="M900 623L905.5 627L910 621L904 617L900 623Z" stroke="#A3A3A3"/>
<path d="M69.9343 338.321L77.9342 337.248L77.3005 327.728L68.8548 329.237L69.9343 338.321Z" stroke="#A3A3A3"/>
<path d="M882.163 423.147L889.954 425.713L894.566 418.708L886.135 416.266L882.163 423.147Z" stroke="#A3A3A3"/>
<path d="M1330.84 765.147L1323.05 767.713L1318.43 760.708L1326.86 758.266L1330.84 765.147Z" stroke="#A3A3A3"/>
<path d="M428.444 573.712L435.869 570.226L434.41 561.967L426.606 565.983L428.444 573.712Z" stroke="#A3A3A3"/>
<path d="M437.141 433.147L444.932 435.713L449.544 428.708L441.113 426.266L437.141 433.147Z" stroke="#A3A3A3"/>
<path d="M346.708 492.955L353.429 495.479L357.408 488.59L350.135 486.188L346.708 492.955Z" stroke="#A3A3A3"/>
<path d="M979.141 416.366L986.932 418.932L991.544 411.927L983.113 409.485L979.141 416.366Z" stroke="#A3A3A3"/>
<path d="M1370.54 519.366L1362.75 521.932L1358.14 514.927L1366.57 512.485L1370.54 519.366Z" stroke="#A3A3A3"/>
<path d="M494.272 502.177L501.697 498.69L500.238 490.432L492.434 494.447L494.272 502.177Z" stroke="#A3A3A3"/>
<path d="M534.119 426.366L541.91 428.932L546.521 421.927L538.091 419.485L534.119 426.366Z" stroke="#A3A3A3"/>
<path d="M904.141 380.366L911.932 382.932L916.544 375.927L908.113 373.485L904.141 380.366Z" stroke="#A3A3A3"/>
<path d="M1255.9 722.366L1248.69 724.932L1244.42 717.927L1252.22 715.485L1255.9 722.366Z" stroke="#A3A3A3"/>
<path d="M459.119 390.366L466.91 392.932L471.521 385.927L463.091 383.485L459.119 390.366Z" stroke="#A3A3A3"/>
<path d="M365.668 450.881L372.39 453.404L376.369 446.515L369.096 444.114L365.668 450.881Z" stroke="#A3A3A3"/>
<path d="M817.135 394.384L826.635 396.753L830.419 387.03L820.211 384.903L817.135 394.384Z" stroke="#A3A3A3"/>
<path d="M1395.87 736.384L1386.37 738.753L1382.58 729.03L1392.79 726.903L1395.87 736.384Z" stroke="#A3A3A3"/>
<path d="M361.425 597.47L369.957 592.667L366.03 583.001L357.15 588.466L361.425 597.47Z" stroke="#A3A3A3"/>
<path d="M99.0916 424.019L111.59 419.033L107.383 408.044L94.3145 413.754L99.0916 424.019Z" stroke="#A3A3A3"/>
<path d="M764.008 450.387L769.515 460.511L780.992 456.765L774.711 446.192L764.008 450.387Z" stroke="#A3A3A3"/>
<path d="M1448.99 792.387L1443.49 802.511L1432.01 798.765L1438.29 788.192L1448.99 792.387Z" stroke="#A3A3A3"/>
<path d="M105.894 365.704L111.403 376.707L121.567 374.26L115.335 362.706L105.894 365.704Z" stroke="#A3A3A3"/>
<path d="M899.651 457.485L898.624 467.566L909.113 470.059L909.789 459.287L899.651 457.485Z" stroke="#A3A3A3"/>
<path d="M1260.06 799.485L1261.01 809.566L1251.3 812.059L1250.67 801.287L1260.06 799.485Z" stroke="#A3A3A3"/>
<path d="M454.629 467.485L453.602 477.566L464.091 480.059L464.767 469.287L454.629 467.485Z" stroke="#A3A3A3"/>
<path d="M901.887 460.3L900.86 470.381L911.349 472.874L912.025 462.102L901.887 460.3Z" stroke="#A3A3A3"/>
<path d="M1257.99 802.3L1258.94 812.381L1249.23 814.874L1248.6 804.102L1257.99 802.3Z" stroke="#A3A3A3"/>
<path d="M456.865 470.3L455.838 480.381L466.327 482.874L467.003 472.102L456.865 470.3Z" stroke="#A3A3A3"/>
<path d="M97.887 407.724L96.8603 417.805L107.349 420.298L108.025 409.526L97.887 407.724Z" stroke="#A3A3A3"/>
<path d="M1.54386 354.688L-7.52767 359.203L-4.0336 369.402L5.43453 364.221L1.54386 354.688Z" stroke="#A3A3A3"/>
<path d="M42.7105 381.739L51.186 383.825L51.3468 370.315L40.4462 363.297L40.0079 351.551L20.3168 341.927L19.2442 347.499L30.8694 354.797L30.5831 366.263L42.2083 373.561L42.7105 381.739Z" stroke="#A3A3A3"/>
<path d="M834 442.576L840.5 447.576L848 438.076L842 428.576L848 420.076L835.5 405.076L831.5 408.576L838 418.576L831.5 426.576L838 436.576L834 442.576Z" stroke="#A3A3A3"/>
<path d="M1379 784.576L1372.5 789.576L1365 780.076L1371 770.576L1365 762.076L1377.5 747.076L1381.5 750.576L1375 760.576L1381.5 768.576L1375 778.576L1379 784.576Z" stroke="#A3A3A3"/>
<path d="M406.782 620.913L414.941 620.083L413.867 608.027L402.981 605.243L401.504 594.944L382.117 592.627L381.613 597.918L393.206 600.722L393.976 611.001L405.569 613.805L406.782 620.913Z" stroke="#A3A3A3"/>
<path d="M305.121 512.059L310.636 517L317 507.612L311.909 498.224L317 489.824L306.394 475L303 478.459L308.515 488.341L303 496.247L308.515 506.129L305.121 512.059Z" stroke="#A3A3A3"/>
<path d="M86.8215 390.444L84.6454 398.783L72.5158 392.487L71.4475 379.698L61.1769 373.724L61.9698 352.075L67.452 353.799L68.4255 367.35L78.7909 372.563L79.7644 386.114L86.8215 390.444Z" stroke="#A3A3A3"/>
<path d="M86.8215 390.444L84.6454 398.783L72.5158 392.487L71.4475 379.698L61.1769 373.724L61.9698 352.075L67.452 353.799L68.4255 367.35L78.7909 372.563L79.7644 386.114L86.8215 390.444Z" stroke="#A3A3A3"/>
<path d="M670.321 384.802L672.515 392.947L684.586 388.887L685.611 377.063L695.83 373.022L694.974 352.613L689.515 353.398L688.586 365.949L678.27 369.262L677.341 381.814L670.321 384.802Z" stroke="#A3A3A3"/>
<path d="M913.169 425.489L915.363 433.634L927.434 429.574L928.46 417.751L938.679 413.709L937.822 393.3L932.363 394.085L931.434 406.637L921.118 409.949L920.19 422.501L913.169 425.489Z" stroke="#A3A3A3"/>
<path d="M1247.54 767.489L1245.51 775.634L1234.33 771.574L1233.38 759.751L1223.92 755.709L1224.71 735.3L1229.77 736.085L1230.63 748.637L1240.18 751.949L1241.04 764.501L1247.54 767.489Z" stroke="#A3A3A3"/>
<path d="M452.589 554.119L459.778 558.531L465.763 547.29L458.387 537.992L463.039 528.036L448.399 513.791L444.97 518.11L452.916 527.871L447.693 537.364L455.639 547.125L452.589 554.119Z" stroke="#A3A3A3"/>
<path d="M468.147 435.489L470.341 443.634L482.412 439.574L483.438 427.751L493.656 423.709L492.8 403.3L487.341 404.085L486.412 416.637L476.096 419.949L475.167 432.501L468.147 435.489Z" stroke="#A3A3A3"/>
<path d="M373.457 495.259L375.351 503.269L385.764 499.276L386.649 487.648L395.465 483.673L394.726 463.602L390.016 464.373L389.215 476.717L380.316 479.976L379.514 492.32L373.457 495.259Z" stroke="#A3A3A3"/>
<path d="M852.169 385.489L854.363 393.634L866.434 389.574L867.46 377.751L877.679 373.709L876.822 353.3L871.363 354.085L870.434 366.637L860.118 369.949L859.19 382.501L852.169 385.489Z" stroke="#A3A3A3"/>
<path d="M1360.83 727.489L1358.64 735.634L1346.57 731.574L1345.54 719.751L1335.32 715.709L1336.18 695.3L1341.64 696.085L1342.57 708.637L1352.88 711.949L1353.81 724.501L1360.83 727.489Z" stroke="#A3A3A3"/>
<path d="M380.779 566.942L387.969 571.355L393.953 560.113L386.578 550.816L391.23 540.86L376.59 526.614L373.161 530.934L381.106 540.695L375.884 550.188L383.83 559.949L380.779 566.942Z" stroke="#A3A3A3"/>
<path d="M320.831 455.919L322.725 463.93L333.138 459.937L334.023 448.309L342.839 444.334L342.1 424.262L337.39 425.034L336.589 437.378L327.69 440.636L326.888 452.981L320.831 455.919Z" stroke="#A3A3A3"/>
<path d="M869 467.076L862.5 472.076L855 462.576L861 453.076L855 444.576L867.5 429.576L871.5 433.076L865 443.076L871.5 451.076L865 461.076L869 467.076Z" stroke="#A3A3A3"/>
<path d="M1344 809.076L1350.5 814.076L1358 804.576L1352 795.076L1358 786.576L1345.5 771.576L1341.5 775.076L1348 785.076L1341.5 793.076L1348 803.076L1344 809.076Z" stroke="#A3A3A3"/>
<path d="M449.048 614.681L447.758 622.78L435.782 621.026L433.618 610L423.419 607.943L422.202 588.455L427.513 588.252L429.657 599.985L439.876 601.335L442.02 613.067L449.048 614.681Z" stroke="#A3A3A3"/>
<path d="M335.727 536.059L329.818 541L323 531.612L328.455 522.224L323 513.824L334.364 499L338 502.459L332.091 512.341L338 520.247L332.091 530.129L335.727 536.059Z" stroke="#A3A3A3"/>
<path d="M-15.7745 397.007C-16.43 397.392 -13.1917 400.669 -11.4905 402.259L-4.71541 399.694L0.198556 405.989L4.70503 403.344L8.2644 408.315L13.9999 404.949L7.19613 395.526L0.641263 399.374L-4.08328 391.556C-7.70725 393.213 -15.1191 396.622 -15.7745 397.007Z" stroke="#A3A3A3"/>
<path d="M773 429.076C772.2 429.076 773.333 432.742 774 434.576L781.5 435.576L782.5 442.076H788L788.5 447.076H795.5L794.5 437.576H786.5V430.076C782.333 429.742 773.8 429.076 773 429.076Z" stroke="#A3A3A3"/>
<path d="M1440 771.076C1440.8 771.076 1439.67 774.742 1439 776.576L1431.5 777.576L1430.5 784.076H1425L1424.5 789.076H1417.5L1418.5 779.576H1426.5V772.076C1430.67 771.742 1439.2 771.076 1440 771.076Z" stroke="#A3A3A3"/>
<path d="M1393 617C1390.95 585.977 1385.09 523.345 1378 521" stroke="#A3A3A3"/>
<path d="M1393 617C1390.95 585.977 1385.09 523.345 1378 521" stroke="#A3A3A3"/>
<path d="M376.283 801C378.328 769.977 384.192 707.345 391.283 705" stroke="#A3A3A3"/>
<rect x="-0.254652" y="0.628598" width="9.46143" height="6.34601" transform="matrix(0.426441 0.904515 -0.935744 0.35268 1381.89 519.905)" fill="#D9D9D9" stroke="#A3A3A3"/>
<rect x="-0.254652" y="0.628598" width="9.46143" height="6.34601" transform="matrix(0.426441 0.904515 -0.935744 0.35268 1381.89 519.905)" fill="#D9D9D9" stroke="#A3A3A3"/>
<rect x="0.254652" y="0.628598" width="9.46143" height="6.34601" transform="matrix(-0.426441 0.904515 0.935744 0.35268 387.613 703.445)" fill="#D9D9D9" stroke="#A3A3A3"/>
<path d="M1395.31 469.221C1407.67 492.289 1402.2 517.397 1383.42 525.438C1364.65 533.479 1339.33 521.557 1326.97 498.489C1314.62 475.42 1320.09 450.313 1338.86 442.271C1357.64 434.23 1382.95 446.153 1395.31 469.221Z" fill="#D9D9D9" stroke="#A3A3A3"/>
<path d="M1395.31 469.221C1407.67 492.289 1402.2 517.397 1383.42 525.438C1364.65 533.479 1339.33 521.557 1326.97 498.489C1314.62 475.42 1320.09 450.313 1338.86 442.271C1357.64 434.23 1382.95 446.153 1395.31 469.221Z" fill="#D9D9D9" stroke="#A3A3A3"/>
<path d="M373.975 653.221C361.615 676.289 367.088 701.397 385.863 709.438C404.638 717.479 429.949 705.557 442.308 682.489C454.667 659.42 449.195 634.313 430.42 626.271C411.645 618.23 386.334 630.153 373.975 653.221Z" fill="#D9D9D9" stroke="#A3A3A3"/>
<path d="M1335.98 465.081C1332.59 453.214 1327.97 458.9 1326.09 463.227C1323.97 514.527 1359.99 513.291 1347.28 504.02C1337.11 496.603 1335.51 474.97 1335.98 465.081Z" fill="#E6E6E6"/>
<path d="M1335.98 465.081C1332.59 453.214 1327.97 458.9 1326.09 463.227C1323.97 514.527 1359.99 513.291 1347.28 504.02C1337.11 496.603 1335.51 474.97 1335.98 465.081Z" fill="#E6E6E6"/>
<path d="M433.306 649.081C436.696 637.214 441.31 642.9 443.193 647.227C445.311 698.527 409.296 697.291 422.007 688.02C432.176 680.603 433.777 658.97 433.306 649.081Z" fill="#E6E6E6"/>
<path d="M1298.5 528L1306.73 549.75H1290.27L1298.5 528Z" fill="#D9D9D9"/>
<path d="M1298.5 528L1306.73 549.75H1290.27L1298.5 528Z" fill="#D9D9D9"/>
<path d="M1298.5 528L1306.73 549.75H1290.27L1298.5 528Z" fill="#D9D9D9"/>
<path d="M1298.5 528L1306.73 549.75H1290.27L1298.5 528Z" fill="#D9D9D9"/>
<path d="M1298.5 528L1290.27 549.75H1306.73L1298.5 528Z" fill="#D9D9D9"/>
<path d="M1298.5 528L1290.27 549.75H1306.73L1298.5 528Z" fill="#D9D9D9"/>
<path d="M1298.5 528L1290.27 549.75H1306.73L1298.5 528Z" fill="#D9D9D9"/>
<path d="M1298.5 528L1290.27 549.75H1306.73L1298.5 528Z" fill="#D9D9D9"/>
<path d="M222.5 353L214.273 374.75H230.727L222.5 353Z" fill="#D9D9D9"/>
<path d="M1298.5 575L1306.73 548.75H1290.27L1298.5 575Z" fill="#D9D9D9"/>
<path d="M1298.5 575L1306.73 548.75H1290.27L1298.5 575Z" fill="#D9D9D9"/>
<path d="M966.953 478.25L974.5 502.328L982.047 478.25H966.953Z" fill="white" stroke="#A3A3A3"/>
<path d="M1351.05 654.25L1343.5 678.328L1335.95 654.25H1351.05Z" fill="white" stroke="#A3A3A3"/>
<path d="M911.953 492.25L919.5 516.328L927.047 492.25H911.953Z" fill="white" stroke="#A3A3A3"/>
<path d="M1249.12 834.25L1242 858.243L1234.88 834.25H1249.12Z" fill="white" stroke="#A3A3A3"/>
<path d="M222.5 400L230.727 373.75H214.273L222.5 400Z" fill="#D9D9D9"/>
<path d="M1298.5 575L1306.73 548.75H1290.27L1298.5 575Z" fill="#D9D9D9"/>
<path d="M1298.5 575L1306.73 548.75H1290.27L1298.5 575Z" fill="#D9D9D9"/>
<path d="M222.5 400L230.727 373.75H214.273L222.5 400Z" fill="#D9D9D9"/>
<path d="M1325.15 553.232L1296.12 554.868L1299.31 543.801L1325.15 553.232Z" fill="#D9D9D9"/>
<path d="M1325.15 553.232L1296.12 554.868L1299.31 543.801L1325.15 553.232Z" fill="#D9D9D9"/>
<path d="M975.638 473.461L998.722 481.887L972.784 483.348L975.638 473.461Z" fill="white" stroke="#A3A3A3"/>
<path d="M1342.36 649.461L1319.28 657.887L1345.22 659.348L1342.36 649.461Z" fill="white" stroke="#A3A3A3"/>
<path d="M920.638 487.461L943.722 495.887L917.784 497.348L920.638 487.461Z" fill="white" stroke="#A3A3A3"/>
<path d="M1240.59 829.479L1219.26 837.884L1243.23 839.341L1240.59 829.479Z" fill="white" stroke="#A3A3A3"/>
<path d="M249.155 378.232L220.118 379.868L223.314 368.801L249.155 378.232Z" fill="#D9D9D9"/>
<path d="M1325.15 553.232L1296.12 554.868L1299.31 543.801L1325.15 553.232Z" fill="#D9D9D9"/>
<path d="M1325.15 553.232L1296.12 554.868L1299.31 543.801L1325.15 553.232Z" fill="#D9D9D9"/>
<path d="M975.638 473.461L998.722 481.887L972.784 483.348L975.638 473.461Z" fill="white" stroke="#A3A3A3"/>
<path d="M1342.36 649.461L1319.28 657.887L1345.22 659.348L1342.36 649.461Z" fill="white" stroke="#A3A3A3"/>
<path d="M920.638 487.461L943.722 495.887L917.784 497.348L920.638 487.461Z" fill="white" stroke="#A3A3A3"/>
<path d="M1240.59 829.479L1219.26 837.884L1243.23 839.341L1240.59 829.479Z" fill="white" stroke="#A3A3A3"/>
<path d="M249.155 378.232L220.118 379.868L223.314 368.801L249.155 378.232Z" fill="#D9D9D9"/>
<path d="M1270.85 553.232L1299.88 554.868L1296.69 543.801L1270.85 553.232Z" fill="#D9D9D9"/>
<path d="M1270.85 553.232L1299.88 554.868L1296.69 543.801L1270.85 553.232Z" fill="#D9D9D9"/>
<path d="M972.362 473.461L949.278 481.887L975.216 483.348L972.362 473.461Z" fill="white" stroke="#A3A3A3"/>
<path d="M1345.64 649.461L1368.72 657.887L1342.78 659.348L1345.64 649.461Z" fill="white" stroke="#A3A3A3"/>
<path d="M917.362 487.461L894.278 495.887L920.216 497.348L917.362 487.461Z" fill="white" stroke="#A3A3A3"/>
<path d="M1243.69 829.479L1265.02 837.884L1241.05 839.341L1243.69 829.479Z" fill="white" stroke="#A3A3A3"/>
<path d="M194.845 378.232L223.882 379.868L220.686 368.801L194.845 378.232Z" fill="#D9D9D9"/>
<path d="M1270.85 553.232L1299.88 554.868L1296.69 543.801L1270.85 553.232Z" fill="#D9D9D9"/>
<path d="M1270.85 553.232L1299.88 554.868L1296.69 543.801L1270.85 553.232Z" fill="#D9D9D9"/>
<path d="M972.362 473.461L949.278 481.887L975.216 483.348L972.362 473.461Z" fill="white" stroke="#A3A3A3"/>
<path d="M1345.64 649.461L1368.72 657.887L1342.78 659.348L1345.64 649.461Z" fill="white" stroke="#A3A3A3"/>
<path d="M917.362 487.461L894.278 495.887L920.216 497.348L917.362 487.461Z" fill="white" stroke="#A3A3A3"/>
<path d="M1243.69 829.479L1265.02 837.884L1241.05 839.341L1243.69 829.479Z" fill="white" stroke="#A3A3A3"/>
<path d="M194.845 378.232L223.882 379.868L220.686 368.801L194.845 378.232Z" fill="#D9D9D9"/>
<path d="M982.004 478.25L974.5 458.413L966.996 478.25H982.004Z" fill="white" stroke="#A3A3A3"/>
<path d="M1336 654.25L1343.5 634.413L1351 654.25H1336Z" fill="white" stroke="#A3A3A3"/>
<path d="M927.004 492.25L919.5 472.413L911.996 492.25H927.004Z" fill="white" stroke="#A3A3A3"/>
<path d="M1234.92 834.25L1242 814.482L1249.08 834.25H1234.92Z" fill="white" stroke="#A3A3A3"/>
<path d="M966.953 478.25L974.5 502.328L982.047 478.25H966.953Z" fill="white" stroke="#A3A3A3"/>
<path d="M1351.05 654.25L1343.5 678.328L1335.95 654.25H1351.05Z" fill="white" stroke="#A3A3A3"/>
<path d="M911.953 492.25L919.5 516.328L927.047 492.25H911.953Z" fill="white" stroke="#A3A3A3"/>
<path d="M1249.12 834.25L1242 858.243L1234.88 834.25H1249.12Z" fill="white" stroke="#A3A3A3"/>
<path d="M973 469L962.5 482H989L973 469Z" fill="white"/>
<path d="M1345 645L1355.5 658H1329L1345 645Z" fill="white"/>
<path d="M918 483L907.5 496H934L918 483Z" fill="white"/>
<path d="M1243.41 825L1253.52 838H1228L1243.41 825Z" fill="white"/>
</g>
<defs>
<clipPath id="clip0_8_2">
<rect width="1440" height="1024" fill="white"/>
</clipPath>
</defs>
</svg>
